<?xml version="1.0" encoding="UTF-8" standalone="no"?>
<!-- Created with Inkscape (http://www.inkscape.org/) -->

<svg
   version="1.1"
   id="svg1"
   width="300"
   height="300"
   viewBox="0 0 300.00001 300.00001"
   sodipodi:docname="BESTLOGO_IMG_0107_Supersmooth_white.svg"
   inkscape:version="1.4.1-rc (06eac75fbf, 2025-03-29)"
   xmlns:inkscape="http://www.inkscape.org/namespaces/inkscape"
   xmlns:sodipodi="http://sodipodi.sourceforge.net/DTD/sodipodi-0.dtd"
   xmlns="http://www.w3.org/2000/svg"
   xmlns:svg="http://www.w3.org/2000/svg">
  <defs
     id="defs1" />
  <sodipodi:namedview
     id="namedview1"
     pagecolor="#ffffff"
     bordercolor="#000000"
     borderopacity="0.25"
     inkscape:showpageshadow="2"
     inkscape:pageopacity="0.0"
     inkscape:pagecheckerboard="0"
     inkscape:deskcolor="#d1d1d1"
     inkscape:zoom="0.37799074"
     inkscape:cx="743.40445"
     inkscape:cy="533.08184"
     inkscape:window-width="1440"
     inkscape:window-height="831"
     inkscape:window-x="0"
     inkscape:window-y="0"
     inkscape:window-maximized="1"
     inkscape:current-layer="g1" />
  <g
     inkscape:groupmode="layer"
     inkscape:label="Image"
     id="g1">
    <path
       style="fill:#ffffff;stroke-width:0.236964"
       d="m 8.02695,300.00001 c 29.19327,-21.05425 65.22501,-30.03792 96.37312,-47.85337 29.52258,-14.93207 61.60206,-36.72467 67.24318,-70.80892 2.64068,-17.01735 -1.20252,-34.85651 -10.47494,-49.53553 C 146.59595,119.44233 135.12918,102.27355 115.1035,97.547316 98.24868,92.143926 80.83061,88.829546 64.36105,82.431806 46.08228,78.168966 26.44999,76.636316 9.97175,67.295556 -0.41659,53.623336 24.3344,49.110026 34.02522,46.091976 c 21.65405,-5.43282 44.19065,-6.44347 65.7137,-12.3892 17.34759,-5.2469 21.14968,15.86276 3.57363,17.84818 -13.99393,-0.2871 -28.40909,23.36362 -6.96668,23.01922 26.61883,1.9151 54.16891,12.89364 70.086,34.431774 3.37878,5.93852 17.14385,13.43697 9.51494,0.61739 -10.6707,-15.420804 -24.47935,-28.777804 -36.81832,-42.813274 -6.3157,-17.79039 17.25205,-20.36979 28.8597,-25.56378 37.28393,-17.23905 74.7465,-37.9116999 116.71493,-41.13943988 9.63465,-1.40785502 25.12851,12.12672988 6.70153,10.77672988 -43.93025,1.23834 -84.88558,19.36336 -123.50051,37.89328 -7.35477,10.90426 17.43189,16.03495 17.81617,28.38966 7.28962,14.4638 12.83134,30.547634 8.77238,46.731204 -8.04489,16.8177 -2.09421,34.362 -2.17398,51.80671 -4.42898,36.34102 -36.98216,61.43748 -68.70993,76.862 C 86.33356,271.0256 47.84891,287.35191 8.02695,300.00001 Z m 2.67492,-26.16292 C -3.00531,264.64753 2.55309,245.70136 0,231.99727 c 0.55756,-24.88711 7.61466,-49.01672 15.57816,-72.50694 10.63423,-20.07509 21.46305,-44.53606 46.18833,-51.08608 22.15827,-1.86886 22.02776,26.42887 20.94213,41.44276 -1.60203,6.97119 3.45288,14.41174 6.34455,3.56919 8.03519,-13.03408 14.33158,-29.83928 28.89819,-36.96786 14.28192,6.19648 18.62888,24.1017 25.21008,36.79075 5.50571,14.38112 3.48895,28.89624 2.10188,41.98794 1.00687,15.47147 -14.59269,36.89044 -32.10174,29.69301 -14.18832,-10.8786 -8.12039,-29.60073 -5.46704,-44.07919 1.74147,-7.7592 6.36018,-37.55234 -7.70139,-21.12861 -9.39325,8.50778 -17.71355,29.01457 -33.36082,23.14433 -8.91555,-11.36849 -7.68319,-26.58441 -11.78633,-39.74475 -16.6786,29.64695 -24.19859,63.19566 -30.59185,96.03189 -3.91414,11.66335 -2.7887,26.22863 -13.55228,34.69338 z M 244.3437,142.49823 c -17.14867,-6.19246 -31.6709,-26.832 -34.02452,-42.09994 13.63775,-12.483394 34.1204,4.40517 38.04318,18.71605 3.33945,7.44072 5.69332,19.30271 -4.01866,23.38389 z m 15.37247,-46.828384 c -15.62541,-10.75246 -37.82912,-10.65637 -52.39014,-20.85349 12.85235,-8.23944 31.68713,-9.10046 47.26307,-8.57568 19.98972,-0.10605 31.91977,28.23896 5.12707,29.42917 z m -60.62926,-41.69774 c -14.70824,-4.91491 17.57971,-12.93785 23.73344,-17.40812 17.59582,-4.84198 37.00768,-11.97391 55.10229,-8.51403 16.11069,5.25051 7.09869,26.99291 -8.3218,19.96926 -18.72774,-1.70994 -37.47932,0.60334 -55.98948,3.18698 -4.85083,0.87601 -9.67806,1.86793 -14.52445,2.76591 z"
       id="path1" />
  </g>
</svg>
