<?xml version="1.0" encoding="UTF-8" standalone="no"?>
<!-- Created with Inkscape (http://www.inkscape.org/) -->

<svg
   version="1.1"
   id="svg1"
   width="300"
   height="300"
   viewBox="0 0 300.00001 300.00001"
   sodipodi:docname="BESTLOGO_IMG_0107_Supersmooth.svg"
   inkscape:version="1.4.1-rc (06eac75fbf, 2025-03-29)"
   xmlns:inkscape="http://www.inkscape.org/namespaces/inkscape"
   xmlns:sodipodi="http://sodipodi.sourceforge.net/DTD/sodipodi-0.dtd"
   xmlns="http://www.w3.org/2000/svg"
   xmlns:svg="http://www.w3.org/2000/svg">
  <defs
     id="defs1" />
  <sodipodi:namedview
     id="namedview1"
     pagecolor="#ffffff"
     bordercolor="#000000"
     borderopacity="0.25"
     inkscape:showpageshadow="2"
     inkscape:pageopacity="0.0"
     inkscape:pagecheckerboard="0"
     inkscape:deskcolor="#d1d1d1"
     inkscape:zoom="0.37799074"
     inkscape:cx="743.40445"
     inkscape:cy="744.72724"
     inkscape:window-width="1440"
     inkscape:window-height="831"
     inkscape:window-x="0"
     inkscape:window-y="0"
     inkscape:window-maximized="1"
     inkscape:current-layer="g1" />
  <g
     inkscape:groupmode="layer"
     inkscape:label="Image"
     id="g1">
    <path
       style="fill:#000000;stroke-width:0.236964"
       d="m 10.140964,302.11401 c 29.19326,-21.05425 65.22501,-30.03793 96.373116,-47.85337 29.52257,-14.93207 61.60206,-36.72467 67.24317,-70.80892 2.64069,-17.01735 -1.20251,-34.85651 -10.47494,-49.53554 -14.57235,-12.35985 -26.03913,-29.52863 -46.0648,-34.254856 -16.85482,-5.40339 -34.272886,-8.71777 -50.742446,-15.11551 -18.27877,-4.26284 -37.91107,-5.79549 -54.38931,-15.13624 -10.3883398,-13.67223 14.36265,-18.18554 24.05348,-21.20359 21.65405,-5.43282 44.19065,-6.44347 65.713686,-12.3892 17.3476,-5.2469 21.14969,15.86276 3.57363,17.84818 -13.993916,-0.2871 -28.409076,23.36362 -6.966666,23.01922 26.618826,1.9151 54.168896,12.89364 70.085996,34.431766 3.37878,5.93852 17.14385,13.43697 9.51494,0.61739 -10.6707,-15.420796 -24.47935,-28.777796 -36.81832,-42.813266 -6.31571,-17.79039 17.25205,-20.36979 28.8597,-25.56378 37.28393,-17.23905 74.7465,-37.9116898 116.71493,-41.1394398 9.63464,-1.40785503 25.1285,12.1267298 6.70153,10.7767298 -43.93025,1.23834 -84.88558,19.36335 -123.50051,37.89327 -7.35478,10.90427 17.43189,16.03497 17.81617,28.38967 7.28961,14.4638 12.83134,30.547626 8.77238,46.731196 -8.04489,16.8177 -2.09422,34.36201 -2.17398,51.80671 -4.42898,36.34102 -36.98217,61.43747 -68.70993,76.862 -37.275216,18.46316 -75.759876,34.78947 -115.581826,47.43758 z m 2.67492,-26.16293 C -0.89129583,266.76153 4.6671042,247.81536 2.1140042,234.11127 c 0.55756,-24.88712 7.61467,-49.01672 15.5781698,-72.50694 10.63423,-20.07508 21.46305,-44.53606 46.18832,-51.08608 22.15828,-1.86887 22.02777,26.42887 20.94214,41.44276 -1.60203,6.97119 3.45288,14.41174 6.34455,3.56919 8.03519,-13.03408 14.331566,-29.83929 28.898186,-36.96787 14.28192,6.19649 18.62888,24.10171 25.21008,36.79076 5.50571,14.38111 3.48895,28.89624 2.10187,41.98794 1.00688,15.47147 -14.59268,36.89043 -32.10174,29.693 -14.18831,-10.87859 -8.12038,-29.60073 -5.46703,-44.07918 1.74146,-7.7592 6.36018,-37.55234 -7.70139,-21.12862 -9.393246,8.50779 -17.713546,29.01458 -33.360826,23.14434 -8.91555,-11.3685 -7.68319,-26.58441 -11.78632,-39.74475 -16.6786,29.64695 -24.19859,63.19566 -30.59186,96.03189 -3.91413,11.66335 -2.78869,26.22862 -13.55227,34.69337 z M 246.45771,144.61223 c -17.14867,-6.19246 -31.6709,-26.832 -34.02452,-42.09994 13.63775,-12.483386 34.12039,4.40517 38.04318,18.71605 3.33945,7.44072 5.69331,19.30271 -4.01866,23.38389 z m 15.37247,-46.828386 c -15.62541,-10.75245 -37.82912,-10.65636 -52.39014,-20.85348 12.85235,-8.23944 31.68713,-9.10046 47.26307,-8.57568 19.98972,-0.10605 31.91976,28.23895 5.12707,29.42916 z m -60.62926,-41.69773 c -14.70824,-4.91491 17.5797,-12.93785 23.73344,-17.40813 17.59582,-4.84197 37.00768,-11.9739 55.10229,-8.51402 16.11069,5.25051 7.09868,26.99291 -8.3218,19.96926 -18.72775,-1.70993 -37.47932,0.60334 -55.98948,3.18698 -4.85083,0.87601 -9.67807,1.86793 -14.52445,2.76591 z"
       id="path1" />
  </g>
</svg>
