<?xml version="1.0" encoding="UTF-8" standalone="no"?>
<!-- Created with Inkscape (http://www.inkscape.org/) -->

<svg
   version="1.1"
   id="svg1"
   width="1489.4545"
   height="1489.4545"
   viewBox="0 0 1489.4545 1489.4545"
   sodipodi:docname="BESTLOGO_IMG_0107_Supersmooth.svg"
   inkscape:version="1.4.1-rc (06eac75fbf, 2025-03-29)"
   xmlns:inkscape="http://www.inkscape.org/namespaces/inkscape"
   xmlns:sodipodi="http://sodipodi.sourceforge.net/DTD/sodipodi-0.dtd"
   xmlns="http://www.w3.org/2000/svg"
   xmlns:svg="http://www.w3.org/2000/svg">
  <defs
     id="defs1" />
  <sodipodi:namedview
     id="namedview1"
     pagecolor="#ffffff"
     bordercolor="#000000"
     borderopacity="0.25"
     inkscape:showpageshadow="2"
     inkscape:pageopacity="0.0"
     inkscape:pagecheckerboard="0"
     inkscape:deskcolor="#d1d1d1"
     inkscape:zoom="0.37799074"
     inkscape:cx="743.40445"
     inkscape:cy="744.72723"
     inkscape:window-width="1440"
     inkscape:window-height="831"
     inkscape:window-x="0"
     inkscape:window-y="0"
     inkscape:window-maximized="1"
     inkscape:current-layer="g1" />
  <g
     inkscape:groupmode="layer"
     inkscape:label="Image"
     id="g1">
    <path
       style="fill:#000000"
       d="M 250.0403,1429.3062 C 371.07663,1338.8702 520.46555,1300.2819 649.60677,1223.7578 772.00841,1159.6189 905.0111,1066.0114 928.39938,919.60662 939.34775,846.51064 923.41372,769.88466 884.9699,706.83267 824.5524,653.7424 777.01073,579.99598 693.98356,559.69502 624.10285,536.48541 551.88691,522.24889 483.60351,494.76816 407.81907,476.45763 326.42288,469.87433 258.1035,429.75224 c -43.07044,-58.72739 59.54805,-78.11377 99.72658,-91.07745 89.77848,-23.33602 183.21602,-27.67714 272.45135,-53.2163 71.92376,-22.53745 87.68737,68.13654 14.8164,76.66469 -58.01933,-1.23322 -117.7851,100.35562 -28.88407,98.87628 110.36261,8.22608 224.58622,55.38308 290.57909,147.89754 14.00853,25.50822 71.07902,57.71688 39.44929,2.65194 C 902.001,545.31072 844.74984,487.93736 793.59202,427.64967 767.40689,351.23319 865.11965,340.15367 913.24538,317.84353 1067.8259,243.79528 1223.1471,154.9984 1397.1497,141.13401 c 39.9456,-6.04724 104.1837,52.08891 27.7848,46.29014 -182.1364,5.31913 -351.9387,83.17296 -512.03758,162.76601 -30.49317,46.83795 72.27325,68.87625 73.86647,121.94439 30.22301,62.12753 53.19921,131.21369 36.37061,200.72827 -33.3544,72.2384 -8.6827,147.59786 -9.0134,222.5295 -18.36271,156.09848 -153.3294,263.89728 -284.87384,330.15148 -154.54443,79.3063 -314.10319,149.434 -479.20646,203.7624 z m 11.09031,-112.3797 c -56.83046,-39.4726 -33.78513,-120.8536 -44.37035,-179.7179 2.31167,-106.8996 31.57068,-210.54543 64.58763,-311.44482 44.08991,-86.23012 88.98659,-191.2993 191.49847,-219.43414 91.86902,-8.02747 91.3279,113.52204 86.82684,178.01241 -6.64206,29.94392 14.31578,61.9039 26.30473,15.33104 33.3142,-55.98634 59.41924,-128.17108 119.81296,-158.79104 59.21334,26.61625 77.23601,103.52598 104.52189,158.03026 22.82687,61.77236 14.46533,124.12032 8.71446,180.35415 4.17453,66.45584 -60.5018,158.45844 -133.09498,127.54274 -58.82527,-46.7277 -33.66739,-127.14638 -22.66653,-189.33685 7.22018,-33.3287 26.36955,-161.30156 -31.93024,-90.75542 -38.94476,36.54417 -73.441,124.62861 -138.31518,99.41371 -36.96419,-48.832 -31.8548,-114.19015 -48.86653,-170.71877 -69.15008,127.3449 -100.32822,271.44933 -126.83495,412.49343 -16.22812,50.0985 -11.56201,112.6619 -56.18822,149.0212 z M 1229.8181,752.77624 c -71.099,-26.59896 -131.3087,-115.25362 -141.0669,-180.83524 56.5426,-53.62089 141.4644,18.9219 157.7284,80.39254 13.8455,31.96074 23.6047,82.91248 -16.6615,100.4427 z m 63.7348,-201.1457 c -64.7835,-46.18588 -156.8409,-45.77313 -217.2114,-89.57364 53.2863,-35.39151 131.376,-39.08993 195.9544,-36.83579 82.8781,-0.45553 132.3405,121.29703 21.257,126.40943 z M 1042.1818,372.52293 c -60.9809,-21.1114 72.8861,-55.57298 98.3997,-74.7745 72.9529,-20.79813 153.4352,-51.43249 228.4561,-36.57096 66.7955,22.55291 29.4314,115.94479 -34.5025,85.77555 -77.6459,-7.34482 -155.3906,2.59155 -232.1344,13.68929 -20.1117,3.76279 -40.1256,8.02345 -60.2189,11.88062 z"
       id="path1" />
  </g>
</svg>
